<mxfile host="Electron" modified="2024-01-23T10:17:57.626Z" agent="Mozilla/5.0 (Windows NT 10.0; Win64; x64) AppleWebKit/537.36 (KHTML, like Gecko) draw.io/21.6.8 Chrome/114.0.5735.289 Electron/25.5.0 Safari/537.36" etag="iqkKr-fd6rir2FKYnrj1" version="21.6.8" type="device">
  <diagram name="Page-1" id="Q9733brAnwOjzcfgRCUL">
    <mxGraphModel dx="780" dy="504" grid="1" gridSize="10" guides="1" tooltips="1" connect="1" arrows="1" fold="1" page="1" pageScale="1" pageWidth="1100" pageHeight="850" math="0" shadow="0">
      <root>
        <mxCell id="0" />
        <mxCell id="1" parent="0" />
        <mxCell id="qEDzIQKV-Fb7HfJVaMsn-37" style="rounded=1;orthogonalLoop=1;jettySize=auto;html=1;entryX=0;entryY=0.5;entryDx=0;entryDy=0;exitX=1;exitY=0.5;exitDx=0;exitDy=0;" edge="1" parent="1" source="qEDzIQKV-Fb7HfJVaMsn-2" target="qEDzIQKV-Fb7HfJVaMsn-3">
          <mxGeometry relative="1" as="geometry">
            <mxPoint x="438.5" y="241" as="sourcePoint" />
            <mxPoint x="565" y="201" as="targetPoint" />
          </mxGeometry>
        </mxCell>
        <mxCell id="qEDzIQKV-Fb7HfJVaMsn-2" value="Data Input" style="shape=parallelogram;html=1;strokeWidth=1;perimeter=parallelogramPerimeter;whiteSpace=wrap;rounded=1;arcSize=12;size=0.23;strokeColor=#000066;" vertex="1" parent="1">
          <mxGeometry x="400" y="145" width="100" height="30" as="geometry" />
        </mxCell>
        <mxCell id="qEDzIQKV-Fb7HfJVaMsn-22" style="edgeStyle=orthogonalEdgeStyle;rounded=0;orthogonalLoop=1;jettySize=auto;html=1;entryX=0.5;entryY=0;entryDx=0;entryDy=0;" edge="1" parent="1" source="qEDzIQKV-Fb7HfJVaMsn-3" target="qEDzIQKV-Fb7HfJVaMsn-4">
          <mxGeometry relative="1" as="geometry" />
        </mxCell>
        <mxCell id="qEDzIQKV-Fb7HfJVaMsn-3" value="Generate Initial Population" style="rounded=0;whiteSpace=wrap;html=1;absoluteArcSize=1;arcSize=14;strokeWidth=1;strokeColor=#000066;" vertex="1" parent="1">
          <mxGeometry x="565" y="140" width="100" height="40" as="geometry" />
        </mxCell>
        <mxCell id="qEDzIQKV-Fb7HfJVaMsn-23" style="edgeStyle=orthogonalEdgeStyle;rounded=0;orthogonalLoop=1;jettySize=auto;html=1;entryX=0.5;entryY=0;entryDx=0;entryDy=0;" edge="1" parent="1" source="qEDzIQKV-Fb7HfJVaMsn-4" target="qEDzIQKV-Fb7HfJVaMsn-8">
          <mxGeometry relative="1" as="geometry" />
        </mxCell>
        <mxCell id="qEDzIQKV-Fb7HfJVaMsn-4" value="Set Iteration Counter" style="rounded=0;whiteSpace=wrap;html=1;absoluteArcSize=1;arcSize=14;strokeWidth=1;strokeColor=#000066;" vertex="1" parent="1">
          <mxGeometry x="565" y="220" width="100" height="40" as="geometry" />
        </mxCell>
        <mxCell id="qEDzIQKV-Fb7HfJVaMsn-25" style="edgeStyle=orthogonalEdgeStyle;rounded=1;orthogonalLoop=1;jettySize=auto;html=1;entryX=0;entryY=0.5;entryDx=0;entryDy=0;exitX=1;exitY=0.5;exitDx=0;exitDy=0;exitPerimeter=0;" edge="1" parent="1" source="qEDzIQKV-Fb7HfJVaMsn-5" target="qEDzIQKV-Fb7HfJVaMsn-9">
          <mxGeometry relative="1" as="geometry" />
        </mxCell>
        <mxCell id="qEDzIQKV-Fb7HfJVaMsn-21" style="edgeStyle=orthogonalEdgeStyle;rounded=0;orthogonalLoop=1;jettySize=auto;html=1;entryX=0.5;entryY=0;entryDx=0;entryDy=0;" edge="1" parent="1" source="qEDzIQKV-Fb7HfJVaMsn-6" target="qEDzIQKV-Fb7HfJVaMsn-3">
          <mxGeometry relative="1" as="geometry" />
        </mxCell>
        <mxCell id="qEDzIQKV-Fb7HfJVaMsn-6" value="Start" style="strokeWidth=1;html=1;shape=mxgraph.flowchart.start_1;whiteSpace=wrap;strokeColor=#000066;" vertex="1" parent="1">
          <mxGeometry x="580" y="70" width="70" height="30" as="geometry" />
        </mxCell>
        <mxCell id="qEDzIQKV-Fb7HfJVaMsn-7" style="edgeStyle=orthogonalEdgeStyle;rounded=0;orthogonalLoop=1;jettySize=auto;html=1;exitX=0.5;exitY=1;exitDx=0;exitDy=0;exitPerimeter=0;" edge="1" parent="1" source="qEDzIQKV-Fb7HfJVaMsn-6" target="qEDzIQKV-Fb7HfJVaMsn-6">
          <mxGeometry relative="1" as="geometry" />
        </mxCell>
        <mxCell id="qEDzIQKV-Fb7HfJVaMsn-24" style="edgeStyle=orthogonalEdgeStyle;rounded=0;orthogonalLoop=1;jettySize=auto;html=1;entryX=0.5;entryY=0;entryDx=0;entryDy=0;entryPerimeter=0;exitX=0.5;exitY=1;exitDx=0;exitDy=0;" edge="1" parent="1" source="qEDzIQKV-Fb7HfJVaMsn-8" target="qEDzIQKV-Fb7HfJVaMsn-5">
          <mxGeometry relative="1" as="geometry" />
        </mxCell>
        <mxCell id="qEDzIQKV-Fb7HfJVaMsn-8" value="Loop Start" style="rounded=1;whiteSpace=wrap;html=1;absoluteArcSize=1;arcSize=14;strokeWidth=1;strokeColor=#000066;" vertex="1" parent="1">
          <mxGeometry x="565" y="300" width="100" height="40" as="geometry" />
        </mxCell>
        <mxCell id="qEDzIQKV-Fb7HfJVaMsn-26" style="edgeStyle=orthogonalEdgeStyle;rounded=1;orthogonalLoop=1;jettySize=auto;html=1;entryX=0.5;entryY=0;entryDx=0;entryDy=0;exitX=1;exitY=0.5;exitDx=0;exitDy=0;" edge="1" parent="1" source="qEDzIQKV-Fb7HfJVaMsn-9" target="qEDzIQKV-Fb7HfJVaMsn-10">
          <mxGeometry relative="1" as="geometry" />
        </mxCell>
        <mxCell id="qEDzIQKV-Fb7HfJVaMsn-9" value="Update Best Solution" style="rounded=0;whiteSpace=wrap;html=1;absoluteArcSize=1;arcSize=14;strokeWidth=1;strokeColor=#000066;" vertex="1" parent="1">
          <mxGeometry x="720" y="390" width="100" height="40" as="geometry" />
        </mxCell>
        <mxCell id="qEDzIQKV-Fb7HfJVaMsn-27" style="edgeStyle=orthogonalEdgeStyle;rounded=0;orthogonalLoop=1;jettySize=auto;html=1;entryX=1;entryY=0.5;entryDx=0;entryDy=0;" edge="1" parent="1" source="qEDzIQKV-Fb7HfJVaMsn-10" target="qEDzIQKV-Fb7HfJVaMsn-11">
          <mxGeometry relative="1" as="geometry" />
        </mxCell>
        <mxCell id="qEDzIQKV-Fb7HfJVaMsn-10" value="Select &lt;br&gt;Parents" style="rounded=0;whiteSpace=wrap;html=1;absoluteArcSize=1;arcSize=14;strokeWidth=1;strokeColor=#000066;" vertex="1" parent="1">
          <mxGeometry x="820" y="500" width="100" height="40" as="geometry" />
        </mxCell>
        <mxCell id="qEDzIQKV-Fb7HfJVaMsn-28" style="edgeStyle=orthogonalEdgeStyle;rounded=0;orthogonalLoop=1;jettySize=auto;html=1;entryX=1;entryY=0.5;entryDx=0;entryDy=0;" edge="1" parent="1" source="qEDzIQKV-Fb7HfJVaMsn-11" target="qEDzIQKV-Fb7HfJVaMsn-12">
          <mxGeometry relative="1" as="geometry" />
        </mxCell>
        <mxCell id="qEDzIQKV-Fb7HfJVaMsn-11" value="Crossover" style="rounded=0;whiteSpace=wrap;html=1;absoluteArcSize=1;arcSize=14;strokeWidth=1;strokeColor=#000066;" vertex="1" parent="1">
          <mxGeometry x="660" y="500" width="100" height="40" as="geometry" />
        </mxCell>
        <mxCell id="qEDzIQKV-Fb7HfJVaMsn-39" style="edgeStyle=orthogonalEdgeStyle;rounded=1;orthogonalLoop=1;jettySize=auto;html=1;exitX=0;exitY=0.5;exitDx=0;exitDy=0;" edge="1" parent="1" source="qEDzIQKV-Fb7HfJVaMsn-12" target="qEDzIQKV-Fb7HfJVaMsn-13">
          <mxGeometry relative="1" as="geometry" />
        </mxCell>
        <mxCell id="qEDzIQKV-Fb7HfJVaMsn-12" value="Mutation" style="rounded=0;whiteSpace=wrap;html=1;absoluteArcSize=1;arcSize=14;strokeWidth=1;strokeColor=#000066;" vertex="1" parent="1">
          <mxGeometry x="500" y="500" width="100" height="40" as="geometry" />
        </mxCell>
        <mxCell id="qEDzIQKV-Fb7HfJVaMsn-30" style="edgeStyle=orthogonalEdgeStyle;rounded=0;orthogonalLoop=1;jettySize=auto;html=1;entryX=1;entryY=0.5;entryDx=0;entryDy=0;exitX=0;exitY=0.5;exitDx=0;exitDy=0;" edge="1" parent="1" source="qEDzIQKV-Fb7HfJVaMsn-13" target="qEDzIQKV-Fb7HfJVaMsn-14">
          <mxGeometry relative="1" as="geometry">
            <mxPoint x="460" y="600" as="sourcePoint" />
            <mxPoint x="65" y="600" as="targetPoint" />
            <Array as="points">
              <mxPoint x="390" y="410" />
              <mxPoint x="390" y="410" />
            </Array>
          </mxGeometry>
        </mxCell>
        <mxCell id="qEDzIQKV-Fb7HfJVaMsn-13" value="Replace Population" style="rounded=0;whiteSpace=wrap;html=1;absoluteArcSize=1;arcSize=14;strokeWidth=1;strokeColor=#000066;" vertex="1" parent="1">
          <mxGeometry x="400" y="390" width="100" height="40" as="geometry" />
        </mxCell>
        <mxCell id="qEDzIQKV-Fb7HfJVaMsn-31" style="edgeStyle=orthogonalEdgeStyle;rounded=0;orthogonalLoop=1;jettySize=auto;html=1;entryX=0.5;entryY=0;entryDx=0;entryDy=0;exitX=0.5;exitY=1;exitDx=0;exitDy=0;" edge="1" parent="1" source="qEDzIQKV-Fb7HfJVaMsn-14" target="qEDzIQKV-Fb7HfJVaMsn-15">
          <mxGeometry relative="1" as="geometry">
            <mxPoint x="460" y="590" as="sourcePoint" />
          </mxGeometry>
        </mxCell>
        <mxCell id="qEDzIQKV-Fb7HfJVaMsn-14" value="Loop End" style="rounded=1;whiteSpace=wrap;html=1;absoluteArcSize=1;arcSize=14;strokeWidth=1;strokeColor=#000066;" vertex="1" parent="1">
          <mxGeometry x="240" y="390" width="100" height="40" as="geometry" />
        </mxCell>
        <mxCell id="qEDzIQKV-Fb7HfJVaMsn-32" style="edgeStyle=orthogonalEdgeStyle;rounded=1;orthogonalLoop=1;jettySize=auto;html=1;entryX=0.5;entryY=0;entryDx=0;entryDy=0;entryPerimeter=0;exitX=0.5;exitY=1;exitDx=0;exitDy=0;" edge="1" parent="1" source="qEDzIQKV-Fb7HfJVaMsn-15" target="qEDzIQKV-Fb7HfJVaMsn-16">
          <mxGeometry relative="1" as="geometry">
            <mxPoint x="315" y="420" as="sourcePoint" />
            <Array as="points">
              <mxPoint x="290" y="590" />
              <mxPoint x="615" y="590" />
            </Array>
          </mxGeometry>
        </mxCell>
        <mxCell id="qEDzIQKV-Fb7HfJVaMsn-15" value="Increment Iteration Counter" style="rounded=0;whiteSpace=wrap;html=1;absoluteArcSize=1;arcSize=14;strokeWidth=1;strokeColor=#000066;" vertex="1" parent="1">
          <mxGeometry x="240" y="500" width="100" height="40" as="geometry" />
        </mxCell>
        <mxCell id="qEDzIQKV-Fb7HfJVaMsn-33" style="edgeStyle=orthogonalEdgeStyle;rounded=1;orthogonalLoop=1;jettySize=auto;html=1;entryX=0;entryY=0.5;entryDx=0;entryDy=0;exitX=0;exitY=0.5;exitDx=0;exitDy=0;exitPerimeter=0;" edge="1" parent="1" source="qEDzIQKV-Fb7HfJVaMsn-16" target="qEDzIQKV-Fb7HfJVaMsn-8">
          <mxGeometry relative="1" as="geometry">
            <mxPoint x="580" y="720" as="sourcePoint" />
            <mxPoint x="180" y="300" as="targetPoint" />
            <Array as="points">
              <mxPoint x="200" y="673" />
              <mxPoint x="200" y="320" />
            </Array>
          </mxGeometry>
        </mxCell>
        <mxCell id="qEDzIQKV-Fb7HfJVaMsn-40" value="&lt;b&gt;&lt;font style=&quot;font-size: 14px;&quot;&gt;No&lt;/font&gt;&lt;/b&gt;" style="edgeLabel;html=1;align=center;verticalAlign=middle;resizable=0;points=[];" vertex="1" connectable="0" parent="qEDzIQKV-Fb7HfJVaMsn-33">
          <mxGeometry x="-0.8924" y="-1" relative="1" as="geometry">
            <mxPoint as="offset" />
          </mxGeometry>
        </mxCell>
        <mxCell id="qEDzIQKV-Fb7HfJVaMsn-35" style="edgeStyle=orthogonalEdgeStyle;rounded=0;orthogonalLoop=1;jettySize=auto;html=1;entryX=0.5;entryY=0;entryDx=0;entryDy=0;entryPerimeter=0;exitX=0.5;exitY=1;exitDx=0;exitDy=0;exitPerimeter=0;" edge="1" parent="1" source="qEDzIQKV-Fb7HfJVaMsn-16" target="qEDzIQKV-Fb7HfJVaMsn-19">
          <mxGeometry relative="1" as="geometry">
            <mxPoint x="295" y="602.5" as="targetPoint" />
          </mxGeometry>
        </mxCell>
        <mxCell id="qEDzIQKV-Fb7HfJVaMsn-36" value="&lt;font style=&quot;font-size: 14px;&quot;&gt;&lt;b&gt;Yes&lt;/b&gt;&lt;/font&gt;" style="edgeLabel;html=1;align=center;verticalAlign=middle;resizable=0;points=[];" vertex="1" connectable="0" parent="qEDzIQKV-Fb7HfJVaMsn-35">
          <mxGeometry x="-0.7481" y="1" relative="1" as="geometry">
            <mxPoint x="-1" y="16" as="offset" />
          </mxGeometry>
        </mxCell>
        <mxCell id="qEDzIQKV-Fb7HfJVaMsn-16" value="Check &lt;br&gt;Termination &lt;br&gt;Condition" style="strokeWidth=1;html=1;shape=mxgraph.flowchart.decision;whiteSpace=wrap;strokeColor=#000066;" vertex="1" parent="1">
          <mxGeometry x="560" y="640" width="110" height="65" as="geometry" />
        </mxCell>
        <mxCell id="qEDzIQKV-Fb7HfJVaMsn-19" value="End" style="strokeWidth=1;html=1;shape=mxgraph.flowchart.start_1;whiteSpace=wrap;strokeColor=#000066;" vertex="1" parent="1">
          <mxGeometry x="580" y="780" width="70" height="30" as="geometry" />
        </mxCell>
        <mxCell id="qEDzIQKV-Fb7HfJVaMsn-5" value="Evaluate &lt;br&gt;Fitness" style="strokeWidth=1;html=1;shape=mxgraph.flowchart.decision;whiteSpace=wrap;strokeColor=#000066;" vertex="1" parent="1">
          <mxGeometry x="565" y="380" width="100" height="60" as="geometry" />
        </mxCell>
      </root>
    </mxGraphModel>
  </diagram>
</mxfile>
